<?xml version="1.0" encoding="UTF-8" standalone="no"?>
<!-- Created with Inkscape (http://www.inkscape.org/) -->
<svg
   xmlns:svg="http://www.w3.org/2000/svg"
   xmlns="http://www.w3.org/2000/svg"
   version="1.0"
   width="100"
   height="100"
   id="svg2">
  <defs
     id="defs4" />
  <path
     d="M 43.570312,47.675781 L 43.570312,61.5625 C 43.570298,64.562505 43.898422,66.425785 44.554687,67.152344 C 45.445296,68.183596 46.792951,68.69922 48.597656,68.699219 L 50.425781,68.699219 L 50.425781,70 L 30,70 L 30,68.699219 L 31.792969,68.699219 C 33.808589,68.69922 35.249993,68.042971 36.117187,66.730469 C 36.58593,66.00391 36.820304,64.281256 36.820312,61.5625 L 36.820312,30.765625 C 36.820304,27.765667 36.503898,25.902388 35.871094,25.175781 C 34.957025,24.144577 33.597651,23.628953 31.792969,23.628906 L 30,23.628906 L 30,22.328125 L 47.472656,22.328125 C 51.738258,22.328173 55.101536,22.767625 57.5625,23.646484 C 60.023406,24.525436 62.097623,26.007856 63.785156,28.09375 C 65.472619,30.179727 66.316369,32.652381 66.316406,35.511719 C 66.316369,39.402374 65.033167,42.566434 62.466797,45.003906 C 59.900359,47.441429 56.27341,48.660178 51.585937,48.660156 C 50.437478,48.660178 49.195292,48.578146 47.859375,48.414062 C 46.52342,48.250022 45.093734,48.003928 43.570312,47.675781 L 43.570312,47.675781 z M 43.570312,45.671875 C 44.812484,45.906274 45.914045,46.082055 46.875,46.199219 C 47.835918,46.31643 48.65623,46.375024 49.335937,46.375 C 51.773414,46.375024 53.876928,45.431665 55.646484,43.544922 C 57.415987,41.658231 58.300752,39.214874 58.300781,36.214844 C 58.300752,34.15238 57.878877,32.236366 57.035156,30.466797 C 56.191379,28.697307 54.996067,27.373089 53.449219,26.494141 C 51.902321,25.615279 50.14451,25.175826 48.175781,25.175781 C 46.98045,25.175826 45.445296,25.398482 43.570312,25.84375 L 43.570312,45.671875 z "
     style="font-size:72px;font-style:normal;font-weight:normal;fill:black;fill-opacity:1;stroke:none;stroke-width:1px;stroke-linecap:butt;stroke-linejoin:miter;stroke-opacity:1;font-family:Times New Roman"
     id="text2047" />
</svg>
